<svg width="289" height="70" viewBox="0 0 289 70" fill="none" xmlns="http://www.w3.org/2000/svg">
<g filter="url(#filter0_i_119_13610)">
<rect width="64" height="64" rx="12" fill="#7339E5"/>
<g filter="url(#filter1_di_119_13610)">
<path d="M32 14C23.7059 14 17 20.6732 17 28.9268C17 36.846 23.1734 43.3102 30.9998 43.8211C31.5509 43.8571 32 44.3014 32 44.8537V47.5941C32 48.4838 33.0747 48.9305 33.7054 48.3029L41.9706 40.078C45.0588 37.3341 47 33.361 47 28.9268C47 20.6732 40.2941 14 32 14ZM32 35.2927C28.2721 35.2927 25.25 32.2854 25.25 28.5756C25.25 24.8659 28.2721 29.6951 32 29.6951C35.7279 29.6951 38.75 24.8659 38.75 28.5756C38.75 32.2854 35.7279 35.2927 32 35.2927Z" fill="white"/>
</g>
</g>
<g filter="url(#filter2_di_119_13610)">
<path d="M105.424 44.648C107.627 44.648 109.549 44.2 111.192 43.304C112.835 42.408 114.104 41.1573 115 39.552L127.04 41.904C125.397 45.6 122.765 48.68 119.144 51.144C115.523 53.608 110.893 54.84 105.256 54.84C100.328 54.84 96.0907 53.9067 92.544 52.04C89.0347 50.136 86.3653 47.5413 84.536 44.256C82.7067 40.9333 81.792 37.2 81.792 33.056C81.792 29.024 82.7253 25.3653 84.592 22.08C86.496 18.7573 89.2213 16.144 92.768 14.24C96.3147 12.2987 100.477 11.328 105.256 11.328C110.109 11.328 114.347 12.448 117.968 14.688C121.589 16.928 124.315 19.7653 126.144 23.2L114.72 26.728C113.787 25.0107 112.499 23.6853 110.856 22.752C109.251 21.7813 107.384 21.296 105.256 21.296C103.315 21.296 101.523 21.744 99.88 22.64C98.2747 23.536 96.9867 24.88 96.016 26.672C95.0453 28.4267 94.56 30.5547 94.56 33.056C94.56 35.632 95.0827 37.7973 96.128 39.552C97.2107 41.2693 98.5733 42.5573 100.216 43.416C101.896 44.2373 103.632 44.648 105.424 44.648ZM142.918 12V25.72C142.918 25.9813 142.788 26.336 142.526 26.784C142.302 27.1947 142.022 27.6427 141.686 28.128C140.716 29.5093 139.932 30.8907 139.334 32.272C138.737 33.616 138.438 35.2213 138.438 37.088H139.782C139.782 35.4453 140.268 33.5973 141.238 31.544C142.209 29.4533 143.646 27.68 145.55 26.224C147.454 24.768 149.713 24.04 152.326 24.04C159.606 24.04 163.246 28.8373 163.246 38.432V54H151.206V41.344C151.206 38.656 150.889 36.7147 150.254 35.52C149.657 34.3253 148.63 33.728 147.174 33.728C145.756 33.728 144.692 34.3067 143.982 35.464C143.273 36.6213 142.918 38.4507 142.918 40.952V54H130.878V12H142.918ZM180.306 54.56C177.282 54.56 174.799 53.8133 172.858 52.32C170.954 50.7893 169.573 48.8667 168.714 46.552C167.893 44.2 167.482 41.7173 167.482 39.104C167.482 36.2293 167.986 33.6533 168.994 31.376C170.002 29.0613 171.421 27.2693 173.25 26C175.079 24.6933 177.151 24.04 179.466 24.04C182.079 24.04 184.114 24.768 185.57 26.224C187.026 27.6427 187.754 29.36 187.754 31.376C187.754 32.944 187.437 34.176 186.802 35.072C186.167 35.9307 185.402 36.4347 184.506 36.584C184.655 36.1733 184.73 35.7253 184.73 35.24C184.73 34.568 184.543 33.9333 184.17 33.336C183.834 32.7387 183.33 32.44 182.658 32.44C181.725 32.44 180.959 32.9813 180.362 34.064C179.802 35.1467 179.522 36.3973 179.522 37.816C179.522 39.9813 179.951 41.6987 180.81 42.968C181.669 44.2373 182.826 44.872 184.282 44.872C185.85 44.872 187.157 44.032 188.202 42.352C189.285 40.672 189.826 38.3947 189.826 35.52V24.88H201.866V54H191.45C190.741 54 190.293 53.9253 190.106 53.776C189.919 53.5893 189.826 53.2907 189.826 52.88C189.826 52.6187 189.919 52.32 190.106 51.984C190.293 51.6107 190.479 51.2933 190.666 51.032C190.853 50.7707 190.983 50.584 191.058 50.472C192.066 49.0533 192.85 47.6907 193.41 46.384C194.007 45.04 194.306 43.416 194.306 41.512H192.962C192.962 43.08 192.495 44.8907 191.562 46.944C190.629 48.9973 189.21 50.7893 187.306 52.32C185.402 53.8133 183.069 54.56 180.306 54.56ZM212.199 32.16H206.319V24.88H212.199V17.824H224.239V24.88H230.119V32.16H224.239V54H212.199V32.16ZM247.262 54H235.222V12H247.262V54ZM265.483 53.272C261.339 53.272 258.259 52.0773 256.243 49.688C254.265 47.2613 253.275 43.7707 253.275 39.216V24.88H265.035V35.688C265.035 38.6747 265.334 40.8213 265.931 42.128C266.566 43.4347 267.611 44.088 269.067 44.088C270.598 44.088 271.737 43.528 272.483 42.408C273.23 41.2507 273.603 39.4027 273.603 36.864V24.88H285.419L285.307 25.104H285.363V41.12C285.363 48.064 284.243 53.44 282.003 57.248C279.763 61.0933 277.169 63.6507 274.219 64.92C271.307 66.2267 268.47 66.88 265.707 66.88C262.683 66.88 259.865 66.3387 257.251 65.256C254.675 64.2107 252.734 62.9227 251.427 61.392L256.691 54.504C257.923 55.4747 259.211 56.2587 260.555 56.856C261.937 57.4533 263.654 57.752 265.707 57.752C269.963 57.752 273.043 56.0533 274.947 52.656C276.889 49.2587 277.953 44.8347 278.139 39.384H276.795C276.609 43.3787 275.545 46.7013 273.603 49.352C271.699 51.9653 268.993 53.272 265.483 53.272Z" fill="white"/>
</g>
<defs>
<filter id="filter0_i_119_13610" x="0" y="0" width="64" height="65" filterUnits="userSpaceOnUse" color-interpolation-filters="sRGB">
<feFlood flood-opacity="0" result="BackgroundImageFix"/>
<feBlend mode="normal" in="SourceGraphic" in2="BackgroundImageFix" result="shape"/>
<feColorMatrix in="SourceAlpha" type="matrix" values="0 0 0 0 0 0 0 0 0 0 0 0 0 0 0 0 0 0 127 0" result="hardAlpha"/>
<feOffset dy="2"/>
<feGaussianBlur stdDeviation="0.5"/>
<feComposite in2="hardAlpha" operator="arithmetic" k2="-1" k3="1"/>
<feColorMatrix type="matrix" values="0 0 0 0 0.501961 0 0 0 0 0.298039 0 0 0 0 0.937255 0 0 0 1 0"/>
<feBlend mode="normal" in2="shape" result="effect1_innerShadow_119_13610"/>
</filter>
<filter id="filter1_di_119_13610" x="15" y="13" width="34" height="38.5962" filterUnits="userSpaceOnUse" color-interpolation-filters="sRGB">
<feFlood flood-opacity="0" result="BackgroundImageFix"/>
<feColorMatrix in="SourceAlpha" type="matrix" values="0 0 0 0 0 0 0 0 0 0 0 0 0 0 0 0 0 0 127 0" result="hardAlpha"/>
<feOffset dy="1"/>
<feGaussianBlur stdDeviation="1"/>
<feComposite in2="hardAlpha" operator="out"/>
<feColorMatrix type="matrix" values="0 0 0 0 0.00784314 0 0 0 0 0.0117647 0 0 0 0 0.14902 0 0 0 0.25 0"/>
<feBlend mode="normal" in2="BackgroundImageFix" result="effect1_dropShadow_119_13610"/>
<feBlend mode="normal" in="SourceGraphic" in2="effect1_dropShadow_119_13610" result="shape"/>
<feColorMatrix in="SourceAlpha" type="matrix" values="0 0 0 0 0 0 0 0 0 0 0 0 0 0 0 0 0 0 127 0" result="hardAlpha"/>
<feOffset dy="2"/>
<feGaussianBlur stdDeviation="0.5"/>
<feComposite in2="hardAlpha" operator="arithmetic" k2="-1" k3="1"/>
<feColorMatrix type="matrix" values="0 0 0 0 0.932405 0 0 0 0 0.925163 0 0 0 0 1 0 0 0 1 0"/>
<feBlend mode="normal" in2="shape" result="effect2_innerShadow_119_13610"/>
</filter>
<filter id="filter2_di_119_13610" x="79.792" y="10.3279" width="207.627" height="59.552" filterUnits="userSpaceOnUse" color-interpolation-filters="sRGB">
<feFlood flood-opacity="0" result="BackgroundImageFix"/>
<feColorMatrix in="SourceAlpha" type="matrix" values="0 0 0 0 0 0 0 0 0 0 0 0 0 0 0 0 0 0 127 0" result="hardAlpha"/>
<feOffset dy="1"/>
<feGaussianBlur stdDeviation="1"/>
<feComposite in2="hardAlpha" operator="out"/>
<feColorMatrix type="matrix" values="0 0 0 0 0.00784314 0 0 0 0 0.0117647 0 0 0 0 0.14902 0 0 0 0.25 0"/>
<feBlend mode="normal" in2="BackgroundImageFix" result="effect1_dropShadow_119_13610"/>
<feBlend mode="normal" in="SourceGraphic" in2="effect1_dropShadow_119_13610" result="shape"/>
<feColorMatrix in="SourceAlpha" type="matrix" values="0 0 0 0 0 0 0 0 0 0 0 0 0 0 0 0 0 0 127 0" result="hardAlpha"/>
<feOffset dy="2"/>
<feGaussianBlur stdDeviation="0.5"/>
<feComposite in2="hardAlpha" operator="arithmetic" k2="-1" k3="1"/>
<feColorMatrix type="matrix" values="0 0 0 0 0.932405 0 0 0 0 0.925163 0 0 0 0 1 0 0 0 1 0"/>
<feBlend mode="normal" in2="shape" result="effect2_innerShadow_119_13610"/>
</filter>
</defs>
</svg>
